<?xml version="1.0" encoding="UTF-8"?><svg xmlns="http://www.w3.org/2000/svg" xmlns:xlink="http://www.w3.org/1999/xlink" contentScriptType="text/ecmascript" width="24.0px" zoomAndPan="magnify" contentStyleType="text/css" height="19.0px" viewBox="0.0 1.1700767263427045 24.491048593350428 22.231457800511386" preserveAspectRatio="none" version="1">
    <g>
        <path fill="#999999" d="M23.908 11.939c-.065-.082-1.614-2.021-4.082-3.808-.224-.16-.536-.112-.698.112-.162.224-.112.536.112.698 1.784 1.291 3.09 2.697 3.621 3.308-1.11 1.27-5.598 6-10.846 6-.928 0-1.889-.149-2.856-.443-.266-.081-.543.069-.624.333-.08.265.069.544.333.624 1.062.322 2.121.486 3.147.486 6.519 0 11.676-6.416 11.892-6.689.145-.181.145-.439.001-.621zM4.483 16.451c.155 0 .308-.071.405-.207.162-.223.112-.536-.111-.698-1.777-1.287-3.077-2.688-3.607-3.296 1.11-1.27 5.598-6 10.846-6 .775 0 1.576.104 2.38.309.265.066.54-.094.608-.361s-.093-.539-.361-.607c-.886-.226-1.77-.34-2.627-.34-6.519 0-11.676 6.416-11.892 6.689-.144.182-.144.439 0 .621.065.081 1.608 2.014 4.066 3.796.089.063.191.094.293.094zM7.516 12.25c0 .276.224.5.5.5s.5-.224.5-.5c0-1.93 1.57-3.5 3.5-3.5.276 0 .5-.224.5-.5s-.224-.5-.5-.5c-2.482 0-4.5 2.019-4.5 4.5zM15.516 12.25c0 1.93-1.57 3.5-3.5 3.5-.276 0-.5.224-.5.5s.224.5.5.5c2.481 0 4.5-2.019 4.5-4.5 0-.276-.224-.5-.5-.5s-.5.224-.5.5zM22.119 2.146c-.195-.195-.512-.195-.707 0l-19.5 19.5c-.195.195-.195.512 0 .707.098.098.226.147.354.147s.256-.049.354-.146l19.5-19.5c.194-.196.194-.512-.001-.708z"/>
    </g>
</svg>